<svg width="59" height="57" fill="none" xmlns="http://www.w3.org/2000/svg"><path d="M50.052 44.935a28.991 28.991 0 01-5.243 3.648 27.5 27.5 0 01-6.064 2.395c-2.12.562-4.354.864-6.656.864-3.488 0-6.885-.54-10.076-1.597-3.123-1.036-5.905-2.612-8.23-4.662-2.325-2.008-4.764-5.374-6.2-8.547-1.254-2.763-1.779-5.741-1.779-10.338 0-3.26.798-6.864 2.166-9.928a23.973 23.973 0 015.471-7.684c2.28-2.136 5.06-3.885 8.275-5.18 2.873-1.143 6.27-1.705 10.395-1.705 3.26 0 6.383.497 9.233 1.468 2.781.95 5.22 2.31 7.25 4.058 1.868 1.618 3.031 3.582 4.262 6.237 1.072 2.266 1.482 4.273 1.482 7.403 0 2.547-.479 4.985-1.414 7.209-.934 2.18-1.64 3.517-3.054 5.18-1.482 1.683-2.303 2.61-3.876 3.474-1.823 1.015-3.214 1.49-4.331 1.49-.889 0-1.163-.195-1.185-.216-.137-.108-.251-.26-.32-.626-.068-.497 0-1.166.206-1.921.228-.864.57-1.684 1.071-2.828l9.119-23.18h-5.996l-1.048 2.634a11.216 11.216 0 00-2.896-2.288c-2.598-1.425-4.787-2.007-7.568-2.007-3.237 0-6.269.798-8.959 2.374a22.741 22.741 0 00-6.68 5.892c-1.777 2.33-2.233 3.583-3.054 5.892l-.137.388c-.98 2.763-1.481 5.483-1.481 8.094 0 1.748.341 3.453 1.003 5.029.66 1.597 1.572 2.978 2.712 4.1 1.117 1.166 2.508 2.094 4.15 2.806 1.595.691 3.35 1.058 5.242 1.058 2.098 0 4.013-.324 6.247-1.058a10.629 10.629 0 003.373-1.834c.228.367.525.69.867.993 1.322 1.251 3.077 1.899 5.175 1.899 2.097 0 4.354-.67 7.066-2.115 2.417-1.295 3.83-2.784 5.563-4.748 1.96-2.224 2.94-4.123 3.989-6.648 1.185-2.784 1.778-5.827 1.778-9.021 0-4.015-.57-6.756-2.029-9.777-1.55-3.195-3.123-5.763-5.699-7.921C49.62 1.532 46.564-.13 43.1-1.295 39.68-2.439 36.01-3 32.157-3c-4.696 0-8.708.67-12.242 2.029-3.83 1.467-7.226 3.54-10.098 6.13A29.372 29.372 0 003 14.481C1.29 18.152.333 22.597.333 26.719c0 5.547.73 9.432 2.44 12.972 1.892 3.884 4.97 7.877 7.819 10.208a28.867 28.867 0 0010.167 5.396A39.503 39.503 0 0032.157 57c2.622 0 5.312-.345 8.002-1.014 2.712-.713 5.243-1.684 7.522-2.914a34.059 34.059 0 006.611-4.576c2.052-1.813 4.377-4.64 5.198-6.021.433-.756.706-1.317.843-1.662h-6.291c-1.209 1.403-2.508 2.806-3.99 4.122zM34.05 34.683c-1.026 1.23-1.687 1.965-2.485 2.46-.889.584-1.596.95-2.507 1.145h-.023c-.912.216-1.892.345-2.895.345-1.163 0-2.212-.194-3.146-.583a7.165 7.165 0 01-2.462-1.618 7.98 7.98 0 01-1.664-2.46 8.262 8.262 0 01-.593-3.13c0-1.943.387-4.058 1.163-6.26.09-.258.182-.539.25-.733.616-1.791.935-2.353 2.075-4.144 1.049-1.64 2.69-3.151 4.97-4.597 1.8-1.144 3.806-1.727 5.995-1.727.889 0 1.824.108 2.804.303.706.15 1.071.345 1.778.733l.046.022c.09.043.182.086.296.15l.068.044a7.785 7.785 0 012.12 1.684c.48.54.867 1.23 1.163 2.093L36.42 30.604c-.707 1.64-1.505 3.022-2.37 4.08z" fill="#464646"/></svg>