<svg width="55" height="55" fill="none" xmlns="http://www.w3.org/2000/svg"><path d="M55 43.438c0 .703-.13 1.62-.39 2.753-.261 1.133-.535 2.025-.82 2.676-.548 1.302-2.136 2.683-4.767 4.14-2.448 1.33-4.87 1.993-7.265 1.993-.703 0-1.387-.046-2.051-.137a16.893 16.893 0 01-2.246-.488 31.879 31.879 0 01-1.855-.566c-.404-.144-1.127-.41-2.169-.801a83.16 83.16 0 00-1.914-.703c-2.552-.912-4.83-1.992-6.835-3.242-3.334-2.058-6.778-4.864-10.332-8.419-3.555-3.554-6.361-6.998-8.418-10.331-1.25-2.006-2.331-4.284-3.243-6.836a83.205 83.205 0 00-.703-1.915c-.39-1.041-.657-1.764-.8-2.168a31.833 31.833 0 01-.567-1.855 16.888 16.888 0 01-.488-2.246A15.07 15.07 0 010 13.243c0-2.397.664-4.819 1.992-7.266 1.459-2.63 2.839-4.22 4.14-4.766C6.785.924 7.677.65 8.81.39 9.94.13 10.859 0 11.563 0c.364 0 .637.04.82.117.469.156 1.159 1.146 2.07 2.969a92.07 92.07 0 011.172 2.11c.495.91.95 1.738 1.367 2.48.417.742.82 1.439 1.211 2.09.078.104.306.43.684.976.377.547.657 1.01.84 1.387.182.378.273.749.273 1.113 0 .521-.371 1.172-1.113 1.953a19.043 19.043 0 01-2.422 2.149 23.515 23.515 0 00-2.422 2.07c-.742.73-1.113 1.328-1.113 1.797 0 .234.065.527.195.879.13.351.24.618.332.8.091.183.273.495.547.938.273.443.423.69.45.742 1.978 3.568 4.244 6.628 6.796 9.18 2.552 2.552 5.612 4.818 9.18 6.797.052.026.3.176.742.45.443.273.755.455.937.546.183.091.45.202.801.332.352.13.645.195.88.195.468 0 1.067-.37 1.796-1.113.73-.742 1.42-1.55 2.07-2.422a19.043 19.043 0 012.149-2.422c.78-.742 1.432-1.113 1.953-1.113.364 0 .735.091 1.113.273.378.183.84.463 1.387.84.547.378.872.606.976.684.651.39 1.348.794 2.09 1.21a200.2 200.2 0 002.48 1.368 92.07 92.07 0 012.11 1.172c1.823.911 2.813 1.601 2.969 2.07.078.183.117.456.117.82z" fill="#464646"/></svg>