<svg width="59" height="59" fill="none" xmlns="http://www.w3.org/2000/svg"><path d="M60.03 30.043c0 4.328.011 8.657 0 12.998-.025 6.287-2.951 10.943-8.175 14.232-3.059 1.91-6.456 2.756-10.06 2.756-7.884 0-15.755.037-23.639-.012-5.477-.036-10.193-1.97-13.93-6.033C1.918 51.469.54 48.506.14 45.084.055 44.36.043 43.645.043 42.92c0-8.621-.012-17.243 0-25.864.036-6.3 2.963-10.955 8.186-14.244C11.313.89 14.722.056 18.35.056c7.86 0 15.72-.037 23.58.012 5.5.036 10.229 1.983 13.965 6.07 2.285 2.503 3.651 5.465 4.038 8.85.158 1.33.085 2.66.097 3.979.012 3.7 0 7.388 0 11.076zm-55.5 0c0 4.437-.013 8.863 0 13.3.011 3.047 1.124 5.671 3.203 7.847 2.794 2.915 6.276 4.33 10.278 4.354 7.944.048 15.876.012 23.82.012 2.564 0 5.006-.557 7.231-1.838 4.16-2.382 6.505-5.889 6.505-10.798V16.742c0-3.023-1.1-5.635-3.168-7.8-2.769-2.925-6.263-4.364-10.253-4.388-8.029-.06-16.046-.025-24.074-.025-2.503 0-4.873.593-7.05 1.826-4.147 2.394-6.505 5.9-6.493 10.81v12.878z" fill="#464646"/><path d="M30.078 42.86c-7.81 0-14.074-6.24-14.062-14.027.012-7.581 6.36-13.796 14.11-13.784 7.788 0 14.075 6.251 14.063 13.966-.012 7.642-6.336 13.845-14.11 13.845zm0-4.474c5.309 0 9.637-4.22 9.637-9.408 0-5.21-4.292-9.455-9.588-9.455-5.308 0-9.637 4.22-9.637 9.407 0 5.212 4.293 9.456 9.588 9.456zM42.86 13.911c0-1.717 1.317-3.095 2.962-3.095 1.644 0 2.962 1.39 2.962 3.095 0 1.681-1.318 3.06-2.938 3.072-1.645.012-2.987-1.355-2.987-3.072z" fill="#464646"/></svg>